# xmcd CD database file
#
# Track frame offsets:
#	150
#	7052
#	22117
#	35220
#	45615
#	55162
#	66847
#	80922
#	86979
#	101979
#	113190
#	121805
#	136470
#	147492
#	158130
#
# Disc length: 2283 seconds
#
# Revision: 0
# Processed by: cddbd v1.4PL0 Copyright (c) Steve Scherf et al.
# Submitted via: CDex 1.40Beta8
#
DISCID=e208e90f
DTITLE=Ringling 5 - P.T. Barnum Was Right
DYEAR=1900
DGENRE=Country
TTITLE0=Intro
TTITLE1=Roadkill
TTITLE2=All The Gold
TTITLE3=Ringling Shuffle
TTITLE4=Little Cow Herd
TTITLE5=Ranchers' Legs
TTITLE6=Old Cowboys
TTITLE7=Baa The Ram
TTITLE8=2 Lazy 2
TTITLE9=Sure Uh-Huh
TTITLE10=Arnold
TTITLE11=Headin' Back
TTITLE12=Wilsall Song
TTITLE13=PMS
TTITLE14=Panty Hose
EXTD=ID3G: 2
EXTT0=
EXTT1=
EXTT2=
EXTT3=
EXTT4=
EXTT5=
EXTT6=
EXTT7=
EXTT8=
EXTT9=
EXTT10=
EXTT11=
EXTT12=
EXTT13=
EXTT14=
PLAYORDER=
